<svg width="24" height="24" viewBox="0 0 24 24" fill="none" xmlns="http://www.w3.org/2000/svg">
<path d="M12.1811 7.51555C14.6366 9.97101 13.5512 10.6099 12.0472 12.114C10.5431 13.618 9.68102 14.9266 7.3595 12.3372C5.85544 10.8331 4.96255 8.03742 6.4666 6.53337C7.97065 5.02932 10.6771 6.0115 12.1811 7.51555Z" fill="white"/>
<path d="M17.596 14.9142C18.5576 15.8758 18.7859 17.182 17.8243 18.1436C16.8627 19.1052 15.4639 18.717 14.5023 17.7554C13.5407 16.7938 13.7301 15.8758 14.6917 14.9142C15.6533 13.9526 16.6344 13.9526 17.596 14.9142Z" fill="white"/>
<rect x="10.8711" y="15.2914" width="5.68235" height="1.26274" rx="0.631372" transform="rotate(-45 10.8711 15.2914)" fill="white"/>
</svg>
